<?xml version="1.0" encoding="UTF-8" standalone="no"?>
<svg
   xmlns:dc="http://purl.org/dc/elements/1.1/"
   xmlns:cc="http://creativecommons.org/ns#"
   xmlns:rdf="http://www.w3.org/1999/02/22-rdf-syntax-ns#"
   xmlns:svg="http://www.w3.org/2000/svg"
   xmlns="http://www.w3.org/2000/svg"
   xmlns:sodipodi="http://sodipodi.sourceforge.net/DTD/sodipodi-0.dtd"
   xmlns:inkscape="http://www.inkscape.org/namespaces/inkscape"
   version="1.1"
   id="logo"
   x="0px"
   y="0px"
   viewBox="0 0 228 38.000001"
   xml:space="preserve"
   inkscape:version="0.48.4 r9939"
   width="100%"
   height="100%"
   sodipodi:docname="logo-with-text.svg"><metadata
     id="metadata3067"><rdf:RDF><cc:Work
         rdf:about=""><dc:format>image/svg+xml</dc:format><dc:type
           rdf:resource="http://purl.org/dc/dcmitype/StillImage" /></cc:Work></rdf:RDF></metadata><defs
     id="defs3065" /><sodipodi:namedview
     pagecolor="#808080"
     bordercolor="#666666"
     borderopacity="1"
     objecttolerance="10"
     gridtolerance="10"
     guidetolerance="10"
     inkscape:pageopacity="1"
     inkscape:pageshadow="2"
     inkscape:window-width="1855"
     inkscape:window-height="1056"
     id="namedview3063"
     showgrid="false"
     inkscape:zoom="3.3894037"
     inkscape:cx="83.245348"
     inkscape:cy="22.282997"
     inkscape:window-x="65"
     inkscape:window-y="24"
     inkscape:window-maximized="1"
     inkscape:current-layer="text3909"
     inkscape:snap-center="true"
     fit-margin-top="0"
     fit-margin-left="0"
     fit-margin-right="0"
     fit-margin-bottom="0"><inkscape:grid
       type="xygrid"
       id="grid3942"
       empspacing="1"
       visible="true"
       enabled="true"
       snapvisiblegridlinesonly="true" /></sodipodi:namedview><polygon
     style="fill:#1f0059"
     points="0,16 3.8,16 9.9,9.9 0,0 0,0 "
     id="polygon3055"
     transform="scale(2.3750001,2.3750001)" /><polygon
     style="fill:#a8b9ff"
     points="3.8,16 16,16 9.9,9.9 "
     id="polygon3057"
     transform="scale(2.3750001,2.3750001)" /><polygon
     style="fill:#25bfff"
     points="16,3.8 16,0 0,0 9.9,9.9 "
     id="polygon3059"
     transform="scale(2.3750001,2.3750001)" /><polygon
     style="fill:#3a0dff"
     points="16,3.8 9.9,9.9 16,16 "
     id="polygon3061"
     transform="scale(2.3750001,2.3750001)" /><text
     xml:space="preserve"
     style="font-size:42.75px;font-style:normal;font-variant:normal;font-weight:normal;font-stretch:normal;line-height:125%;letter-spacing:0px;word-spacing:0px;opacity:0.090535;fill:#ffffff;fill-opacity:1;stroke:#000000;stroke-width:1.1875;stroke-miterlimit:4;stroke-opacity:1;stroke-dasharray:none;font-family:DejaVu Sans;-inkscape-font-specification:DejaVu Sans"
     x="40.674583"
     y="35.162243"
     id="text3088"
     sodipodi:linespacing="125%"><tspan
       sodipodi:role="line"
       id="tspan3090"
       x="40.674583"
       y="35.162243"
       style="font-size:42.75px;font-style:normal;font-variant:normal;font-weight:normal;font-stretch:semi-condensed;text-align:start;line-height:125%;writing-mode:lr-tb;text-anchor:start;fill:#ffffff;fill-opacity:1;stroke:#000000;stroke-width:1.1875;stroke-miterlimit:4;stroke-opacity:1;stroke-dasharray:none;font-family:DejaVu Sans;-inkscape-font-specification:DejaVu Sans Semi-Condensed" /></text>
<g
     style="font-size:33px;font-style:normal;font-variant:normal;font-weight:normal;font-stretch:semi-condensed;text-align:start;line-height:125%;letter-spacing:0px;word-spacing:0px;writing-mode:lr-tb;text-anchor:start;fill:#fafafa;fill-opacity:1;stroke:none;font-family:DejaVu Sans;-inkscape-font-specification:DejaVu Sans Semi-Condensed"
     id="text3909"><path
       d="m 56,8.0597893 2.999999,-0.059788 0,15.0000007 c 0,2.617614 0.249752,4.402831 1.058315,5.558934 0.818907,1.145206 2.12761,1.441068 3.941685,1.441066 1.814045,2e-6 3.133127,-0.29586 3.941699,-1.441066 0.80853,-1.156103 1.058301,-2.94132 1.058301,-5.558934 l 0,-15.0000007 L 72,8.0597893 72,23.307359 c -1.3e-5,3.184763 -0.673803,5.589689 -2.021374,7.214784 -1.347608,1.625099 -3.33788,2.437647 -5.970844,2.437647 -2.643359,0 -4.638821,-0.812548 -5.986404,-2.437647 C 56.673791,28.897048 55.999997,26.492122 56,23.307359 L 56,8.0597893"
       style="line-height:125%;fill:#fafafa;font-family:DejaVu Sans;-inkscape-font-specification:DejaVu Sans Semi-Condensed"
       id="path3924"
       inkscape:connector-curvature="0"
       sodipodi:nodetypes="ccscscsccsssssc" /><path
       d="m 90.994999,21.168775 0,10.84429 -2.995,-0.01306 0,-11 c 0,-1.700424 -0.06458,-2.708052 -0.683106,-3.552935 -0.618551,-0.844857 -1.540839,-1.267292 -2.766863,-1.267308 -1.480087,1.6e-5 -2.650895,0.508008 -3.512426,1.523977 -0.8505,1.015996 -1.037605,2.542369 -1.037605,4.296266 l 0,10 -3.005,0.01306 0,-17.966871 2.766863,0 0,2.791282 c 0.651671,-1.080136 1.419322,-1.887574 2.302959,-2.42232 0.894669,-0.534711 1.927406,-0.802073 3.098225,-0.802091 1.910837,1.8e-5 3.35778,0.641691 4.340828,1.92502 0.994068,1.272669 1.491108,3.149564 1.491125,5.63069"
       style="line-height:125%;fill:#fafafa;font-family:DejaVu Sans;-inkscape-font-specification:DejaVu Sans Semi-Condensed"
       id="path3926"
       inkscape:connector-curvature="0"
       sodipodi:nodetypes="cccscccsccccccccc" /><path
       d="m 94.949999,14.018205 3.076221,0 0,17.99486 -3.022442,-0.01306 0,-18.000001 m -0.05378,-6.9869367 3.076221,0 L 98,11.000001 l -2.996222,3e-6 0,-3.9999998"
       style="line-height:125%;fill:#fafafa;font-family:DejaVu Sans;-inkscape-font-specification:DejaVu Sans Semi-Condensed"
       id="path3928"
       inkscape:connector-curvature="0"
       sodipodi:nodetypes="cccccccccc" /><path
       d="M 100.98685,14.023439 104,14.000001 108.99186,29.130581 114,14.000001 l 3.01314,0.02344 -6.17524,18 -3.67574,0 -6.17531,-18"
       style="line-height:125%;fill:#fafafa;font-family:DejaVu Sans;-inkscape-font-specification:DejaVu Sans Semi-Condensed"
       id="path3930"
       inkscape:connector-curvature="0"
       sodipodi:nodetypes="cccccccc" /><path
       d="m 135.01217,21.99421 0,1.496097 L 123,23.453427 c 0.11778,2.105624 0.44365,3.749421 1.42864,4.857632 0.99574,1.097145 2.37156,1.645712 4.12745,1.64571 1.0278,2e-6 2.01819,-0.144067 2.97107,-0.432206 0.9636,-0.288135 1.91647,-0.720341 2.8587,-1.29662 l 0,2.892455 c -0.95293,0.465453 -1.93256,0.820083 -2.93901,1.06389 -0.99569,0.243808 -2.0075,0.365714 -3.0353,0.365714 -2.59103,0 -4.64134,-0.864412 -6.15099,-2.593233 -1.49889,-1.728822 -2.24839,-4.067161 -2.24839,-7.01503 0,-3.047596 0.71197,-5.463512 2.13597,-7.24776 1.43469,-1.795301 3.36725,-2.692953 5.79763,-2.692978 2.17343,2.5e-5 3.89186,0.809023 5.15526,2.427003 1.2741,1.606933 1.91113,3.795665 1.91114,6.566206 m -2.66592,-0.897659 c -0.0213,-1.6734 -0.42833,-3.008803 -1.22059,-4.006214 -0.79227,-0.997383 -1.84154,-1.496081 -3.14776,-1.496097 -1.48818,1.6e-5 -2.682,0.482092 -3.58139,1.446228 -0.88862,0.964165 -1.26804,2.208558 -1.39651,3.959534 l 9.34625,0.09655"
       style="line-height:125%;fill:#fafafa;font-family:DejaVu Sans;-inkscape-font-specification:DejaVu Sans Semi-Condensed"
       id="path3932"
       inkscape:connector-curvature="0"
       sodipodi:nodetypes="ccccsccccscscccccccccc" /><path
       d="m 148.94724,16.737674 c -0.31251,-0.193343 -0.65292,-0.332992 -1.02122,-0.418945 -0.36833,-0.09666 -0.77012,-0.145004 -1.20545,-0.145019 -1.57377,1.5e-5 -2.88345,0.730603 -3.72057,1.826291 -0.83709,1.084974 -0.9674,2.502364 -1,4.543108 l 0,9.456893 -2.94724,0.01306 L 139,14.000001 l 3,0 0,3 c 0.58034,-1.095687 1.18801,-2.136821 2.1256,-2.663205 0.93751,-0.537092 2.07038,-0.805646 3.39861,-0.805665 1.05485,0.04099 1.30305,0.372806 1.47579,0.46887 l -0.0529,2.737673"
       style="line-height:125%;fill:#fafafa;font-family:DejaVu Sans;-inkscape-font-specification:DejaVu Sans Semi-Condensed"
       id="path3934"
       inkscape:connector-curvature="0"
       sodipodi:nodetypes="ccccsccccccccc" /><path
       d="m 164.02902,14.497928 0,2.803711 c -0.7772,-0.429672 -1.58769,-0.751937 -2.43145,-0.966797 -0.83271,-0.214827 -1.69873,-0.322249 -2.598,-0.322265 -1.36561,1.6e-5 -2.39261,0.225601 -3.08096,0.676758 -0.68834,0.451186 -1.03254,1.127943 -1.03253,2.030273 -1e-5,0.687513 0.24423,1.229993 0.73275,1.627441 0.49962,0.38673 1.48777,0.757336 2.96439,1.111817 l 0.93261,0.225586 c 1.96514,0.451182 3.35851,1.090341 4.18009,1.91748 0.82159,0.816414 1.23238,1.960456 1.2324,3.432129 -2e-5,1.675785 -0.61622,3.002444 -1.84858,3.979981 -1.23239,0.977539 -2.92552,1.466308 -5.07941,1.466308 -0.89931,0 -1.83745,-0.09668 -2.81446,-0.290039 -0.97706,-0.182617 -2.00403,-0.461914 -3.08094,-0.83789 l 0,-3.061524 c 1.02139,0.569339 2.02618,0.999026 3.0143,1.289063 0.98814,0.279299 1.96514,0.418947 2.93105,0.418945 1.29902,2e-6 2.29825,-0.236326 2.9977,-0.708984 0.69946,-0.483396 1.04917,-1.160153 1.04918,-2.030274 -1e-5,-0.805658 -0.25536,-1.423334 -0.76606,-1.853027 -0.49962,-0.429681 -1.60433,-0.843255 -3.31413,-1.240723 l -0.94923,-0.241699 c -1.7098,-0.38671 -2.94774,-0.97753 -3.71379,-1.772461 -0.75499,-0.805653 -1.13249,-1.906727 -1.13249,-3.303223 0,-1.69725 0.56068,-3.007796 1.68203,-3.93164 1.12135,-0.92381 2.70902,-1.385724 4.76301,-1.385743 1.02142,1.9e-5 1.98177,0.08058 2.8811,0.2417 0.89929,0.161151 1.72642,0.40285 2.48142,0.725097"
       style="line-height:125%;fill:#fafafa;font-family:DejaVu Sans;-inkscape-font-specification:DejaVu Sans Semi-Condensed"
       id="path3936"
       inkscape:connector-curvature="0" /><path
       d="M 168.05,24.885256 168,14.000001 l 3,0 0,11.000001 c -2e-5,1.708013 0.0748,2.764164 0.68967,3.623535 0.61487,0.848635 1.53166,1.272951 2.75037,1.272949 1.48223,2e-6 2.64605,-0.510251 3.49149,-1.530762 0.85637,-1.020503 1.06845,-2.190337 1.06847,-3.952061 l 0,-10.413662 3,0 0,18.000001 -3,0 0,-2.579762 c -0.65878,1.095704 -1.21123,1.727712 -2.08958,2.26482 -0.8674,0.526367 -1.88298,0.789551 -3.04679,0.789551 -1.89946,0 -3.34327,-0.644531 -4.33142,-1.933594 -0.98815,-1.289059 -1.48223,-3.174311 -1.48221,-5.655761 m 6.85119,-11.359864 0,0"
       style="line-height:125%;fill:#fafafa;font-family:DejaVu Sans;-inkscape-font-specification:DejaVu Sans Semi-Condensed"
       id="path3938"
       inkscape:connector-curvature="0"
       sodipodi:nodetypes="cccccsccccccccssccc" /><path
       d="m 199.89627,17.430546 c 0.6844,-1.332016 1.49375,-2.314925 2.42806,-2.948731 0.93427,-0.633771 2.03695,-0.950665 3.30803,-0.950684 1.71647,1.9e-5 3.03641,0.660663 3.95986,1.981934 0.93426,1.310562 1.40141,3.179701 1.40143,5.607422 l 0,10.892578 L 208,32.000002 208,21.438445 c -2e-5,-1.72948 -0.005,-3.234448 -0.55881,-4.072353 -0.55408,-0.837875 -1.28965,-1.366075 -2.44119,-1.366091 -1.39059,1.6e-5 -2.18524,0.508886 -3,1.529378 -0.8148,1.020521 -1.00002,2.708916 -1,4.470623 l 0,10 -3,0 0,-10.487798 c -2e-5,-1.740222 -0.63501,-3.318949 -1.19992,-4.146112 -0.55406,-0.837875 -1.63766,-1.366075 -2.80008,-1.366091 -1.37971,1.6e-5 -2.2516,0.624896 -3.06638,1.65613 C 190.1297,18.676653 190,20.249037 190,22.000002 l 0,10 -2.99365,0.01306 -0.006,-18.013064 3,0 0,2.511742 c 0.61923,-1.106429 1.08571,-1.664676 1.94396,-2.191061 0.85823,-0.526349 1.87943,-0.789532 3.06359,-0.789551 1.19501,1.9e-5 2.21078,0.333026 3.04731,0.999024 0.83649,0.666032 1.45029,1.632828 1.84141,2.900391"
       style="line-height:125%;fill:#fafafa;font-family:DejaVu Sans;-inkscape-font-specification:DejaVu Sans Semi-Condensed"
       id="path3940"
       inkscape:connector-curvature="0"
       sodipodi:nodetypes="csccscccccscccccccsccccccccc" /></g></svg>