<svg xmlns="http://www.w3.org/2000/svg" viewBox="0 0 228 38">
  <path fill="#1f0059" d="M9.025 38l14.488-14.487L0 0v38z"/>
  <path fill="#a8b9ff" d="M38 38L23.513 23.513 9.025 38z"/>
  <path fill="#25bfff" d="M38 0H0l23.513 23.513L38 9.025z"/>
  <path fill="#3a0dff" d="M23.513 23.513L38 38V9.025z"/>
  <path d="M56 8.06L59 8v15c0 2.618.25 4.403 1.058 5.559C60.878 29.704 62.186 30 64 30s3.133-.296 3.942-1.441C68.75 27.403 69 25.618 69 23V8l3 .06v15.247c0 3.185-.674 5.59-2.021 7.215-1.348 1.625-3.338 2.438-5.971 2.438-2.644 0-4.639-.813-5.987-2.438C56.674 28.897 56 26.492 56 23.307V8.06m34.995 13.109v10.844L88 32V21c0-1.7-.065-2.708-.683-3.553-.619-.845-1.54-1.267-2.767-1.267-1.48 0-2.65.508-3.512 1.524C80.188 18.72 80 20.246 80 22v10l-3.005.013V14.046h2.767v2.791c.652-1.08 1.42-1.887 2.303-2.422.894-.535 1.927-.802 3.098-.802 1.91 0 3.358.642 4.34 1.925.995 1.273 1.492 3.15 1.492 5.63m3.955-7.15h3.076v17.995L95.004 32V14m-.054-6.987h3.076L98 11h-2.996V7m5.983 7.023L104 14l4.992 15.13L114 14l3.013.023-6.175 18h-3.676l-6.175-18m34.025 7.971v1.496L123 23.453c.118 2.106.444 3.75 1.429 4.858.995 1.097 2.371 1.646 4.127 1.646 1.028 0 2.018-.144 2.971-.432.964-.289 1.917-.72 2.859-1.297v2.892c-.953.466-1.933.82-2.94 1.064-.995.244-2.007.366-3.034.366-2.591 0-4.642-.864-6.151-2.593-1.5-1.73-2.249-4.067-2.249-7.015 0-3.048.712-5.464 2.136-7.248 1.435-1.795 3.367-2.693 5.798-2.693 2.173 0 3.892.809 5.155 2.427 1.274 1.607 1.911 3.796 1.911 6.566m-2.666-.897c-.021-1.674-.428-3.01-1.22-4.007-.793-.997-1.842-1.496-3.148-1.496-1.488 0-2.682.482-3.581 1.446-.89.965-1.269 2.209-1.397 3.96l9.346.097m16.601-4.359a3.392 3.392 0 0 0-1.021-.42 4.74 4.74 0 0 0-1.205-.144c-1.574 0-2.884.73-3.721 1.826-.837 1.085-.967 2.502-1 4.543V32l-2.947.013L139 14h3v3c.58-1.096 1.188-2.137 2.126-2.663.937-.537 2.07-.806 3.398-.806 1.055.041 1.303.373 1.476.469l-.053 2.738m15.082-2.24v2.804a10.221 10.221 0 0 0-2.431-.967 10.36 10.36 0 0 0-2.598-.322c-1.366 0-2.393.225-3.081.676-.689.452-1.033 1.128-1.033 2.03 0 .688.244 1.23.733 1.628.5.387 1.488.757 2.964 1.112l.933.225c1.965.452 3.358 1.09 4.18 1.918.822.816 1.232 1.96 1.232 3.432 0 1.676-.616 3.003-1.848 3.98-1.233.978-2.926 1.466-5.08 1.466-.899 0-1.837-.096-2.814-.29a21.193 21.193 0 0 1-3.081-.838v-3.061a14.73 14.73 0 0 0 3.014 1.289c.988.28 1.965.419 2.931.419 1.3 0 2.299-.236 2.998-.71.7-.482 1.05-1.16 1.05-2.03 0-.805-.256-1.423-.767-1.852-.5-.43-1.604-.844-3.314-1.241l-.95-.242c-1.71-.387-2.947-.977-3.713-1.772-.755-.806-1.133-1.907-1.133-3.303 0-1.698.561-3.008 1.682-3.932 1.122-.924 2.71-1.386 4.764-1.386 1.02 0 1.981.08 2.88.242.9.161 1.727.403 2.482.725m4.021 10.387L168 14h3v11c0 1.708.075 2.764.69 3.624.615.848 1.531 1.272 2.75 1.272 1.482 0 2.646-.51 3.492-1.53.856-1.02 1.068-2.19 1.068-3.952V14h3v18h-3v-2.58c-.659 1.096-1.211 1.728-2.09 2.265-.867.526-1.883.79-3.046.79-1.9 0-3.344-.645-4.332-1.934s-1.482-3.174-1.482-5.656m32.401-7.455c.714-1.331 1.558-2.314 2.533-2.948.974-.634 2.124-.95 3.45-.95 1.79 0 3.418.586 4.382 1.907.974 1.31 1.21 3.254 1.21 5.681v10.893L209 32V21c0-1.73-.101-2.796-.68-3.634-.577-.838-1.467-1.257-2.668-1.257-1.45 0-2.6.51-3.45 1.531-.85 1.02-1.202 2.598-1.202 4.36v10h-3V21c0-1.74-.19-2.807-.778-3.634-.578-.838-1.473-1.257-2.686-1.257-1.439 0-2.583.516-3.433 1.547C190.264 18.676 190 20.25 190 22v10l-2.994.013L187 14h3v2.475c.646-1.107 1.262-1.628 2.157-2.154.895-.527 1.96-.79 3.195-.79 1.247 0 2.306.333 3.179 1 .872.665 1.513 1.632 1.92 2.9" fill="#fafafa"/>
</svg>
